<?xml version="1.0" standalone="no"?>
<!DOCTYPE svg PUBLIC "-//W3C//DTD SVG 20010904//EN"
 "http://www.w3.org/TR/2001/REC-SVG-20010904/DTD/svg10.dtd">
<svg version="1.0" xmlns="http://www.w3.org/2000/svg"
 width="512.000000pt" height="512.000000pt" viewBox="0 0 512.000000 512.000000"
 preserveAspectRatio="xMidYMid meet">
<metadata>
Created by potrace 1.14, written by Peter Selinger 2001-2017
</metadata>
<g transform="translate(0.000000,512.000000) scale(0.100000,-0.100000)"
fill="#000000" stroke="none">
<path d="M2064 5106 c-96 -31 -182 -118 -210 -214 -11 -35 -14 -141 -14 -471
0 -415 0 -430 26 -589 15 -89 25 -164 23 -167 -3 -2 -75 16 -161 40 l-156 45
-68 68 c-287 287 -713 343 -1071 141 -106 -60 -252 -206 -312 -312 -163 -289
-163 -605 0 -894 60 -106 206 -252 312 -312 90 -51 215 -96 307 -110 211 -34
453 22 626 144 20 15 27 3 255 -415 l234 -431 153 -114 152 -115 0 -140 0
-140 -55 0 c-46 0 -60 -4 -80 -25 -23 -23 -25 -31 -25 -132 l0 -108 -305 -114
c-316 -117 -335 -128 -335 -181 0 -53 19 -64 335 -181 l305 -114 0 -108 c0
-101 2 -109 25 -132 l24 -25 991 0 991 0 24 25 c23 23 25 31 25 132 l0 108
298 110 c177 65 306 119 319 132 30 29 30 77 1 106 -14 13 -143 67 -320 132
l-298 110 0 108 c0 101 -2 109 -25 132 -20 21 -34 25 -80 25 l-57 0 4 234 3
234 93 187 c51 103 91 189 90 190 -14 11 -139 76 -141 74 -27 -49 -188 -391
-193 -409 -4 -14 -10 -52 -13 -85 l-6 -60 -70 -18 c-93 -24 -314 -33 -426 -18
-60 9 -130 30 -230 70 l-144 57 -5 279 c-5 273 -6 282 -32 354 -15 41 -26 76
-25 77 1 2 281 -37 622 -85 1284 -183 1436 -203 1460 -197 14 4 31 16 39 29
15 24 176 624 176 656 0 11 -10 31 -22 45 -19 21 -75 40 -313 106 -159 45
-364 103 -455 129 l-165 47 -5 294 c-6 331 -8 344 -85 428 -76 85 -224 125
-325 87 -68 -25 -69 -24 -89 32 -26 76 -65 129 -124 167 -106 71 -226 73 -349
8 -4 -2 -16 15 -28 37 -27 55 -80 105 -143 138 -45 24 -64 28 -137 28 -100 -1
-160 -24 -226 -90 -70 -71 -88 -121 -92 -262 -4 -122 -4 -123 -28 -123 -13 0
-24 3 -25 8 0 4 -5 45 -10 92 -6 47 -14 297 -17 555 l-7 470 -24 50 c-32 64
-100 131 -159 157 -58 26 -171 33 -228 14z m166 -168 c26 -14 53 -37 65 -58
19 -33 20 -58 26 -500 4 -256 10 -500 14 -542 l8 -78 -106 0 c-105 0 -107 0
-142 -31 -20 -18 -37 -30 -39 -28 -2 2 -16 76 -30 164 -27 158 -27 166 -24
570 3 390 4 412 23 445 22 38 93 80 135 80 14 0 46 -10 70 -22z m720 -880 c33
-17 51 -35 68 -68 21 -42 22 -55 22 -270 l-1 -225 -17 51 c-40 115 -167 214
-273 214 l-29 0 0 93 c0 119 23 171 90 205 24 12 56 22 70 22 14 0 46 -10 70
-22z m480 -160 c33 -17 51 -35 68 -68 l22 -44 0 -586 0 -586 -22 -44 c-25 -48
-89 -90 -138 -90 -49 0 -113 42 -137 90 l-23 44 0 586 0 586 23 44 c24 48 88
90 137 90 14 0 46 -10 70 -22z m480 -240 c33 -17 51 -35 68 -68 22 -44 22 -48
22 -470 0 -422 0 -426 -22 -470 -25 -48 -89 -90 -138 -90 -49 0 -113 42 -137
90 -23 44 -23 48 -23 470 0 422 0 426 23 470 24 48 88 90 137 90 14 0 46 -10
70 -22z m-1120 -80 c48 -25 90 -89 90 -138 0 -49 -42 -113 -90 -137 -42 -22
-56 -23 -268 -23 -132 0 -231 -4 -242 -10 -11 -6 -78 -108 -150 -228 l-130
-217 0 -82 c0 -69 4 -89 28 -133 30 -59 102 -116 155 -124 18 -2 69 -9 115
-15 208 -26 374 -182 411 -385 6 -33 11 -157 11 -277 l0 -217 -73 -10 c-41 -6
-144 -21 -230 -33 l-156 -22 -138 104 -139 103 -232 426 -232 426 0 169 0 169
337 338 338 338 275 0 c266 0 277 -1 320 -22z m228 -847 c-25 -49 -88 -91
-138 -91 -49 0 -113 42 -137 90 -21 41 -23 58 -23 216 l0 171 46 6 c108 12
230 113 257 214 10 40 12 4 15 -257 2 -298 2 -305 -20 -349z m-172 -1416 c49
-9 142 -34 206 -55 65 -22 150 -45 190 -51 116 -18 408 -3 501 27 15 5 17 -2
17 -55 l0 -61 -720 0 -720 0 0 85 c0 47 1 85 3 86 1 0 54 9 117 19 146 23 293
24 406 5z m-409 -650 c72 -81 42 -209 -58 -249 l-35 -15 -125 74 c-68 41 -124
79 -124 85 0 6 56 44 124 85 l125 74 35 -15 c20 -8 46 -26 58 -39z m673 33
c48 -25 90 -89 90 -138 0 -14 -10 -46 -22 -70 -25 -48 -89 -90 -138 -90 -14 0
-46 10 -70 23 -48 24 -90 88 -90 137 0 14 10 46 23 70 24 48 88 90 137 90 14
0 46 -10 70 -22z m758 -58 c67 -40 121 -77 120 -82 -2 -4 -59 -42 -127 -83
l-125 -74 -35 15 c-49 21 -68 40 -87 90 -29 77 5 161 78 194 23 10 45 17 48
16 3 -2 60 -36 128 -76z m-2012 -32 c-21 -29 -20 -68 1 -98 13 -18 13 -22 2
-18 -8 3 -49 18 -91 34 -43 16 -78 31 -78 34 0 5 156 68 173 69 5 1 1 -9 -7
-21z m2457 -14 c42 -16 77 -31 77 -34 0 -3 -35 -18 -77 -34 -43 -16 -84 -31
-92 -34 -11 -4 -11 0 2 18 9 14 17 36 17 50 0 14 -8 36 -17 50 -13 18 -13 22
-2 18 8 -3 49 -18 92 -34z"/>
<path d="M4585 4894 c-236 -124 -438 -235 -447 -246 -22 -25 -23 -66 -4 -94 8
-12 56 -38 105 -59 50 -21 91 -40 91 -43 0 -4 -74 -81 -165 -172 -145 -146
-165 -170 -165 -199 0 -40 38 -81 76 -81 31 0 958 519 987 552 9 11 17 33 17
50 0 48 -34 71 -143 98 l-97 24 140 141 c122 123 140 146 140 174 0 41 -38 81
-77 81 -17 -1 -203 -93 -458 -226z m15 -217 c0 -35 28 -70 65 -80 11 -3 40
-11 64 -17 l44 -12 -104 -59 -104 -59 -3 34 c-4 42 -31 67 -106 99 l-58 24 93
51 c52 28 97 51 102 52 4 0 7 -15 7 -33z"/>
<path d="M105 2295 c-16 -16 -25 -35 -25 -56 0 -29 23 -56 201 -235 l201 -201
-152 -38 c-83 -21 -160 -45 -170 -54 -32 -26 -36 -73 -8 -104 33 -38 1259
-727 1292 -727 38 0 76 41 76 82 0 29 -25 57 -235 268 l-236 236 137 59 c75
32 145 67 155 78 23 25 25 65 4 94 -8 12 -90 61 -182 109 -93 48 -190 99 -218
114 -284 155 -769 400 -790 400 -14 0 -37 -11 -50 -25z"/>
</g>
</svg>
